<svg id="Layer_1" data-name="Layer 1" xmlns="http://www.w3.org/2000/svg" xmlns:xlink="http://www.w3.org/1999/xlink" viewBox="0 0 600 688.07">
  <defs>
    <style>
      .cls-1 {
        fill: #fff;
      }

      .cls-2 {
        fill: #919191;
      }

      .cls-24, .cls-3 {
        fill: #d02026;
      }

      .cls-30, .cls-4 {
        fill: #66a343;
      }

      .cls-5 {
        fill: #bcbec0;
      }

      .cls-14, .cls-5, .cls-6, .cls-7 {
        fill-rule: evenodd;
      }

      .cls-6 {
        fill: #939598;
      }

      .cls-7 {
        fill: #e7d78f;
      }

      .cls-13, .cls-8 {
        font-size: 12px;
      }

      .cls-8 {
        fill: #847a7e;
      }

      .cls-13, .cls-16, .cls-19, .cls-8 {
        font-family:  -apple-system, BlinkMacSystemFont, "Segoe UI", "Roboto", "Oxygen", "Ubuntu", "Cantarell", "Fira Sans", "Droid Sans", "Helvetica Neue", sans-serif;
      }

      .cls-9 {
        letter-spacing: 0.01em;
      }

      .cls-10 {
        letter-spacing: -0.06em;
      }

      .cls-11 {
        font-size: 24px;
        fill: #7d8289;
        letter-spacing: 0.2em;
      }

      .cls-11, .cls-22, .cls-24, .cls-27, .cls-30 {
        font-family:  -apple-system, BlinkMacSystemFont, "Segoe UI", "Roboto", "Oxygen", "Ubuntu", "Cantarell", "Fira Sans", "Droid Sans", "Helvetica Neue", sans-serif; 
      }

      .cls-12 {
        letter-spacing: 0.01em;
      }

      .cls-13, .cls-16, .cls-19 {
        fill: #77696e;
      }

      .cls-14 {
        fill: none;
        stroke: #939598;
        stroke-miterlimit: 2.61;
        stroke-width: 1px;
        stroke-dasharray: 1 3;
      }

      .cls-15 {
        fill: #f04e27;
      }

      .cls-16, .cls-19 {
        font-size: 11px;
      }

      .cls-16 {
        letter-spacing: 0.01em;
      }

      .cls-17 {
        letter-spacing: 0.01em;
      }

      .cls-18 {
        letter-spacing: 0.01em;
      }

      .cls-19 {
        letter-spacing: -0.01em;
      }

      .cls-20 {
        letter-spacing: 0.02em;
      }

      .cls-21 {
        fill: #f8be1a;
        stroke: #000;
        stroke-miterlimit: 10;
      }

      .cls-22 {
        font-size: 10px;
      }

      .cls-22, .cls-27 {
        fill: #3a3436;
      }

      .cls-23 {
        letter-spacing: 0em;
      }

      .cls-24, .cls-27, .cls-30 {
        font-size: 10px;
      }

      .cls-25 {
        letter-spacing: 0em;
      }

      .cls-26 {
        letter-spacing: 0em;
      }

      .cls-28 {
        letter-spacing: 0em;
      }

      .cls-29 {
        letter-spacing: -0.02em;
      }

      .cls-31 {
        letter-spacing: -0.01em;
      }

      .cls-32 {
        letter-spacing: 0em;
      }

      .cls-33 {
        letter-spacing: -0.01em;
      }

      .cls-34 {
        letter-spacing: -0.01em;
      }

      .cls-35 {
        letter-spacing: -0.01em;
      }

      .cls-36 {
        letter-spacing: 0em;
      }

      .cls-37 {
        letter-spacing: 0em;
      }
    </style>
    <symbol id="first-aid" data-name="first-aid" viewBox="0 0 10.09 10.09">
      <g>
        <rect class="cls-1" x="0.25" y="0.25" width="9.59" height="9.59"/>
        <path class="cls-2" d="M9.59.5V9.59H.5V.5H9.59m.5-.5H0V10.09H10.09V0Z"/>
      </g>
      <g>
        <rect class="cls-3" x="3.77" y="1.96" width="2.55" height="6.16"/>
        <polygon class="cls-3" points="1.97 6.32 1.97 3.77 8.12 3.77 8.12 6.32 1.97 6.32"/>
      </g>
    </symbol>
    <symbol id="tree" data-name="tree" viewBox="0 0 10.55 17.44">
      <polygon class="cls-4" points="5.28 0 7.91 6.09 10.55 12.18 5.28 12.18 0 12.18 2.64 6.09 5.28 0"/>
      <rect class="cls-4" x="4.17" y="10.29" width="2.21" height="7.15"/>
    </symbol>
  </defs>
  <title>OTOL-Logo_BOS-stations</title>
  <g>
    <g>
      <polygon class="cls-5" points="43.34 267.68 54.75 287.99 72.8 300.65 74.62 305.27 87.4 317.13 92.06 326.38 100.38 327.38 116.6 322.96 118.42 316.53 132.42 317.53 140.33 313.51 171.15 315.12 202.38 302.66 210.69 295.43 237.96 294.6 252.13 301.4 256.58 308.21 269.94 307.81 293.01 295.4 319.73 291.39 318.11 282.98 340.37 249.73 349.28 226.1 366.28 200.87 378.43 158.01 378.43 149.6 384.09 139.99 383.28 132.78 395.02 118.76 404.33 122.76 422.14 121.16 446.83 121.56 452.9 125.97 468.69 125.57 480.85 129.18 481.85 124.2 495.21 133.01 504.52 135.41 516.25 129.41 530.83 126.6 530.83 120.2 515.86 107.78 515.86 93.36 522.73 88.55 545.39 90.56 564.02 86.15 575.76 77.34 573.33 68.53 564.42 68.53 551.47 66.12 541.75 57.31 532.04 58.12 518.28 44.89 510.59 44.89 501.69 53.31 496.42 48.51 508.56 38.09 502.49 30.88 497.64 32.48 489.95 42.89 485.09 36.89 480.63 34.89 481.04 18.46 490.75 14.86 490.36 7.65 476.99 -1.16 472.14 2.04 461.61 -7.58 461.21 -22.79 449.87 -30 444.61 -26.8 447.85 -16.78 435.71 -5.17 430.85 -5.97 434.49 -15.98 432.47 -25.2 425.19 -25.59 417.5 -0.76 409.4 1.24 397.66 28.07 395.64 42.5 375.4 63.72 365.69 63.72 349.49 69.73 343.83 76.94 349.9 76.54 345.85 82.54 351.11 84.55 364.07 80.94 358.81 88.96 349.9 93.36 348.33 95.47 349.4 99.87 356.3 119.16 351.43 128.61 343.93 124.39 342.91 110.52 340.56 100.51 338.57 100.97 338.72 98.64 333.79 99.27 327.7 108.31 331.56 133.03 325.68 135.85 314.73 127.4 304.99 111.13 299.11 110.52 290.64 106.81 283.11 116.31 282.71 129.41 268.14 141.82 262.87 153.04 247.09 167.85 243.44 177.87 229.68 194.69 214.71 207.51 168.97 218.32 163.93 220.72 167.03 235.14 172.4 241.1 165.41 238.47 157.52 242.58 144.26 244.19 138.06 251.64 134.36 263.18 134.16 279.2 124.45 292.42 124.85 296.82 102.59 294.02 79.52 285.6 63.33 286.01 57.25 277.2 47.54 266.38 43.34 267.68"/>
      <g>
        <polygon class="cls-6" points="340.56 100.51 342.91 110.52 343.93 124.39 351.43 128.61 356.3 119.16 349.4 99.87 348.33 95.47 345.44 99.36 340.56 100.51"/>
        <polygon class="cls-6" points="290.64 106.81 299.11 110.52 304.99 111.13 314.73 127.4 325.68 135.85 331.56 133.03 327.7 108.31 333.79 99.27 338.72 98.64 338.97 94.56 338.16 83.35 327.24 87.36 313.87 97.36 293.27 103.48 290.64 106.81"/>
        <polygon class="cls-7" points="485.92 140.77 489.17 146.38 483.59 143.88 485.92 140.77"/>
        <polygon class="cls-7" points="486.32 134.55 498.21 138.96 498.41 142.67 489.17 142.27 485.92 136.85 486.32 134.55"/>
        <polygon class="cls-7" points="492.62 165.55 481.15 168.36 489.57 170.66 492.62 165.55"/>
        <polygon class="cls-7" points="480.64 176.88 486.02 180 485.92 189.83 482.27 188.72 480.64 176.88"/>
        <polygon class="cls-7" points="410.26 578 413.21 580.7 411.89 595.45 408.85 596.36 408.23 582.41 410.26 578"/>
        <polygon class="cls-7" points="405.49 578.59 406.1 597.96 403.15 609.1 394.53 615.01 390.06 609.6 391.78 593.55 397.57 577.49 402.75 574.28 405.49 578.59"/>
        <polygon class="cls-7" points="16.55 402.82 30.26 406.83 32.29 409.85 26.5 413.06 16.45 409.54 14.42 404.33 16.55 402.82"/>
        <polygon class="cls-7" points="21.93 427 36.35 429.51 42.55 435.43 47.02 436.74 47.32 440.75 34.12 440.14 28.64 440.45 20.71 431.32 21.93 427"/>
        <path class="cls-7" d="M33.5,444.56l13.92.6,8.12,5.72L44.68,462.12l-7,2L33,458.2l1.62-7.12S33.61,444.66,33.5,444.56Z"/>
        <polygon class="cls-7" points="6.66 311.64 15.57 296.42 28.93 278.8 34.59 270.39 43.34 267.68 54.75 287.99 72.8 300.65 74.62 305.27 87.4 317.13 92.06 326.38 100.38 327.38 116.6 322.96 118.42 316.53 132.42 317.53 140.33 313.51 171.15 315.12 202.38 302.66 210.69 295.43 237.96 294.6 252.13 301.4 256.58 308.21 269.94 307.81 293.01 295.4 319.73 291.39 318.11 282.98 340.37 249.73 349.28 226.1 366.28 200.87 378.43 158.01 378.43 149.6 384.09 139.99 383.28 132.78 395.02 118.76 404.33 122.76 422.14 121.16 446.83 121.56 452.9 125.97 468.69 125.57 480.85 129.18 480.23 132.21 474.57 133.41 475.37 138.62 471.73 144.22 483.47 148.63 494.39 161.44 481.85 164.65 469.3 162.65 464.04 165.85 472.94 176.27 477.69 178.88 479 184.97 474.16 186.28 470.12 194.69 479.42 202.7 483.06 214.31 501.69 233.54 510.18 241.15 504.52 251.56 489.95 254.76 487.93 261.58 492.78 265.58 495.21 275.2 503.71 280 527.59 302.03 535.68 302.03 545 312.44 548.23 319.25 557.13 321.25 554.3 331.27 547.42 334.07 540.14 331.27 531.63 337.28 518.68 335.68 500.47 318.05 504.12 332.87 500.87 338.47 495.61 331.67 483.88 343.29 483.88 351.3 478.62 357.3 476.59 378.53 471.73 386.14 467.69 405.36 452.71 416.98 458.38 431.39 451.49 441.41 441.78 451.42 437.06 440.97 431.38 438.17 434.43 445.58 433.61 457.42 424.07 468.26 422.23 478.09 412.89 481.91 404.57 480.7 406.6 485.72 402.13 492.13 415.74 491.34 417.97 493.54 416.35 503.37 409.85 507.99 413.51 510.4 420 509.79 421.43 517.42 417.97 526.05 409.04 523.44 407.41 521.23 406.8 525.65 411.88 530.46 415.33 533.67 406.8 551.53 400.9 551.55 398.47 547.15 395.23 561.16 395.23 568.78 383.5 590 364.47 602.82 348.28 605.62 325.21 616.44 314.28 618.03 311.04 602.82 313.07 594.4 307.4 586 305.38 581.99 300.11 584.39 294.05 576.39 288.78 579.18 279.88 576.78 275.01 567.97 271.07 576.78 274.95 584.2 264.53 581.29 260.04 575.58 260.04 566.77 253.97 561.56 247.49 565.57 237.37 559.56 231.31 560.36 222.81 569.57 209.04 571.58 206.75 577.02 198.43 578.22 192.54 573 186.03 574.81 173.03 590.66 164.91 590.66 166.13 581.63 164.5 562.97 159.84 549.32 162.07 539.7 158.62 532.27 159.64 538.29 154.55 548.92 147.44 553.54 140.54 548.72 130.99 555.54 116.78 556.75 108.25 553.74 96.47 552.93 93.02 545.71 84.28 553.14 77.98 553.14 71.49 537.68 71.28 524.44 68.24 499.56 58.49 493.34 55.84 486.52 61.94 479.09 69.66 468.06 68.24 458.23 62.75 448.39 46.74 432.6 32.97 424.59 19.69 421.51 19.29 417.09 29.45 415.89 38.17 408.27 57.88 403.65 71.08 393.42 81.84 394.22 71.69 391.21 56.66 400.44 39.2 403.05 31.88 404.66 20.51 401.24 13.4 388.4 16.86 384.99 23.35 388.2 18.27 379.77 1.62 359.1 0 338.04 7.71 333.43 8.93 326.8 6.09 319.37 6.66 311.64"/>
        <polygon class="cls-5" points="161.16 221.43 153.65 223.27 152.97 223.43 149.68 224.24 149.68 229.75 157.81 237.69 164.81 234.27 161.16 221.43"/>
        <polygon class="cls-5" points="154.97 238.78 148.67 233.88 146.54 236.58 148.77 241.39 154.97 238.78"/>
        <polygon class="cls-5" points="146.64 241.79 143.89 236.38 137.5 245.61 146.64 241.79"/>
      </g>
      <text class="cls-8" transform="translate(126.96 369.25)">WEST KALIMANTAN</text>
      <text class="cls-11" transform="translate(239.28 80.59)">BORNEO</text>
      <text class="cls-8" transform="translate(206.4 448.85)">CENTRAL KALIMANTAN</text>
      <text class="cls-8" transform="translate(363.52 332.24)">EAST KALIMANTAN</text>
      <text class="cls-13" transform="translate(337.42 554.5)">SOUTH KALIMANTAN</text>
      <g>
        <path class="cls-14" d="M94.19,551.2c21.49-12.53-4.54-65.3,2-75.75,6.84-10.93,16.13,3.64,24.59-13.28,27-54,123.59-18,123.59-82.4,0-37.7,77.38-41.11,83.72-29.9,4.61,8.16-3,38.83,1.32,43.19C336.69,400.35,346,378.77,346,411c0,29.08,25.17,27.34,22.59,49.84-.39,3.34-11.27,6.59-14.62,12-2.81,4.49-9.39,34.55-10.63,34.55-40.34,0-13.8,20.23-33.22,27.24-21.85,7.88-21.36,18.9-21.36,44.59"/>
        <path class="cls-14" d="M419.11,515.32c-16.74,0-28.19,1.46-34.56-11.29-4.47-8.95,1.33-21,1.33-30.57,0-4.8-2.27-9.66-6-10.63-3.18-.83-4.31-4.16-7.31-5.32-1.52-.58-4.42,1.33-6,1.33"/>
        <path class="cls-14" d="M272.81,350.54c-3.88-3.55-6.2-9.24-8.29-13.93-3.08-6.86,7.22-15.32,10.94-17.91,3.28-2.28,5.31-2.07,5.31-6.64,0-3.16.33-6.1.33-9.29"/>
      </g>
    </g>
    <polygon class="cls-15" points="418.01 292.59 408.01 292.59 408.01 282.59 413.01 277.37 418.01 282.59 418.01 292.59"/>
    <polygon class="cls-15" points="301.49 501.87 291.49 501.87 291.49 491.87 296.49 486.65 301.49 491.87 301.49 501.87"/>
    <polygon class="cls-15" points="268.95 486.68 258.95 486.68 258.95 476.68 263.95 471.46 268.95 476.68 268.95 486.68"/>
    <polygon class="cls-15" points="261.1 525.44 251.1 525.44 251.1 515.44 256.1 510.22 261.1 515.44 261.1 525.44"/>
  </g>
  <text class="cls-16" transform="translate(40 622.52)">BOS Entwicklungszusammenarbeit</text>
  <text class="cls-16" transform="translate(40 641.5)">BOS Rettungstation</text>
  <text class="cls-19" transform="translate(40 660.48)">Waldgebiet</text>
  <polygon class="cls-15" points="32.29 622.52 20.63 622.52 20.63 610.86 26.46 604.77 32.29 610.86 32.29 622.52"/>
  <circle class="cls-21" cx="443.32" cy="445.64" r="5"/>
  <circle class="cls-21" cx="229.89" cy="532.86" r="5"/>
  <text class="cls-22" transform="translate(451.56 449.52)">Bali<tspan class="cls-23" x="17.41" y="0">k</tspan><tspan x="22.71" y="0">papan</tspan></text>
  <circle class="cls-21" cx="431.62" cy="299.82" r="5"/>
  <text class="cls-24" transform="translate(456 430.55)"><tspan class="cls-25">S</tspan><tspan x="6.02" y="0">amboja Le</tspan><tspan class="cls-26" x="53.27" y="0">s</tspan><tspan x="58.38" y="0">tari</tspan></text>
  <text class="cls-27" transform="translate(442.17 303.09)">Mua<tspan class="cls-26" x="19.52" y="0">r</tspan><tspan class="cls-28" x="23.47" y="0">a </tspan><tspan class="cls-29" x="31.21" y="0">W</tspan><tspan x="39.52" y="0">ahau</tspan></text>
  <text class="cls-30" transform="translate(408.01 267.09)"><tspan class="cls-31">K</tspan><tspan x="6.1" y="0">e</tspan><tspan class="cls-32" x="11.62" y="0">h</tspan><tspan x="17.65" y="0">je Se</tspan><tspan class="cls-31" x="39.8" y="0">w</tspan><tspan x="47.29" y="0">en</tspan></text>
  <text class="cls-24" transform="translate(160.31 517.92)">N<tspan class="cls-33" x="6.94" y="0">y</tspan><tspan x="12.25" y="0">aru Me</tspan><tspan class="cls-26" x="43.5" y="0">n</tspan><tspan x="49.46" y="0">teng</tspan></text>
  <text class="cls-27" transform="translate(162.66 535.86)"><tspan class="cls-31">P</tspan><tspan x="5.89" y="0">alan</tspan><tspan class="cls-34" x="25.58" y="0">k</tspan><tspan x="30.8" y="0">a</tspan><tspan class="cls-26" x="36.3" y="0">r</tspan><tspan x="40.25" y="0">a</tspan><tspan class="cls-33" x="45.75" y="0">y</tspan><tspan x="51.05" y="0">a</tspan></text>
  <text class="cls-30" transform="translate(211.09 505.33)">BOS M<tspan class="cls-35" x="29.31" y="0">a</tspan><tspan class="cls-26" x="34.71" y="0">w</tspan><tspan x="42.24" y="0">as</tspan></text>
  <text class="cls-30" transform="translate(256.1 542.67)"><tspan class="cls-25">S</tspan><tspan x="6.02" y="0">al</tspan><tspan class="cls-26" x="14.25" y="0">a</tspan><tspan class="cls-28" x="19.72" y="0">t Island</tspan></text>
  <text class="cls-30" transform="translate(258.95 412.2)"><tspan class="cls-36">B</tspan><tspan x="6.24" y="0">u</tspan><tspan class="cls-37" x="12.19" y="0">k</tspan><tspan class="cls-26" x="17.49" y="0">i</tspan><tspan x="20.37" y="0">t B</tspan><tspan class="cls-26" x="32.74" y="0">a</tspan><tspan x="38.21" y="0">ti</tspan><tspan class="cls-34" x="44.95" y="0">k</tspan><tspan x="50.17" y="0">ap</tspan></text>
  <text class="cls-30" transform="translate(124.44 414.09)"><tspan class="cls-36">B</tspan><tspan x="6.24" y="0">u</tspan><tspan class="cls-37" x="12.19" y="0">k</tspan><tspan class="cls-26" x="17.49" y="0">i</tspan><tspan x="20.37" y="0">t Ba</tspan><tspan class="cls-34" x="38.23" y="0">k</tspan><tspan x="43.45" y="0">a </tspan><tspan class="cls-36" x="-12.95" y="12">B</tspan><tspan x="-6.71" y="12">u</tspan><tspan class="cls-37" x="-0.76" y="12">k</tspan><tspan class="cls-26" x="4.54" y="12">i</tspan><tspan x="7.42" y="12">t Ra</tspan><tspan class="cls-33" x="25.26" y="12">y</tspan><tspan x="30.57" y="12">a NP</tspan></text>
  <use width="10.09" height="10.09" transform="translate(440.21 421.96)" xlink:href="#first-aid"/>
  <g>
    <polygon class="cls-4" points="392.51 253.23 395.15 259.32 397.79 265.41 392.51 265.41 387.24 265.41 389.88 259.32 392.51 253.23"/>
    <rect class="cls-4" x="391.41" y="263.52" width="2.21" height="7.15"/>
  </g>
  <use width="10.55" height="17.44" transform="translate(374.48 261.95)" xlink:href="#tree"/>
  <g>
    <polygon class="cls-4" points="398.9 269.6 401.53 275.69 404.17 281.79 398.9 281.79 393.62 281.79 396.26 275.69 398.9 269.6"/>
    <rect class="cls-4" x="397.79" y="279.89" width="2.21" height="7.15"/>
  </g>
  <g>
    <polygon class="cls-4" points="243.9 393.19 246.54 399.28 249.18 405.37 243.9 405.37 238.62 405.37 241.26 399.28 243.9 393.19"/>
    <rect class="cls-4" x="242.79" y="403.48" width="2.21" height="7.15"/>
  </g>
  <g>
    <polygon class="cls-4" points="231.14 401.91 233.78 408 236.41 414.09 231.14 414.09 225.86 414.09 228.5 408 231.14 401.91"/>
    <rect class="cls-4" x="230.03" y="412.2" width="2.21" height="7.15"/>
  </g>
  <g>
    <polygon class="cls-4" points="250.28 409.56 252.92 415.66 255.56 421.75 250.28 421.75 245 421.75 247.64 415.66 250.28 409.56"/>
    <rect class="cls-4" x="249.17" y="419.86" width="2.21" height="7.15"/>
  </g>
  <g>
    <polygon class="cls-4" points="196.81 408.82 199.45 414.91 202.09 421 196.81 421 191.54 421 194.18 414.91 196.81 408.82"/>
    <rect class="cls-4" x="195.71" y="419.11" width="2.21" height="7.15"/>
  </g>
  <g>
    <polygon class="cls-4" points="184.05 417.54 186.69 423.63 189.33 429.72 184.05 429.72 178.78 429.72 181.41 423.63 184.05 417.54"/>
    <rect class="cls-4" x="182.95" y="427.83" width="2.21" height="7.15"/>
  </g>
  <g>
    <polygon class="cls-4" points="203.2 425.19 205.83 431.29 208.47 437.38 203.2 437.38 197.92 437.38 200.56 431.29 203.2 425.19"/>
    <rect class="cls-4" x="202.09" y="435.49" width="2.21" height="7.15"/>
  </g>
  <g>
    <polygon class="cls-4" points="243.98 530.23 246.62 536.32 249.25 542.42 243.98 542.42 238.7 542.42 241.34 536.32 243.98 530.23"/>
    <rect class="cls-4" x="242.87" y="540.52" width="2.21" height="7.15"/>
  </g>
  <g>
    <polygon class="cls-4" points="272.53 493.15 275.17 499.24 277.8 505.33 272.53 505.33 267.25 505.33 269.89 499.24 272.53 493.15"/>
    <rect class="cls-4" x="271.42" y="503.44" width="2.21" height="7.15"/>
  </g>
  <use width="10.09" height="10.09" transform="translate(234.57 511.3)" xlink:href="#first-aid"/>
  <use id="first-aid-7" data-name="first-aid" width="10.09" height="10.09" transform="translate(21.42 632.33)" xlink:href="#first-aid"/>
  <use width="10.55" height="17.44" transform="translate(23.37 650.3) scale(0.8)" xlink:href="#tree"/>
</svg>
